<?xml version="1.0" standalone="no"?>
<!DOCTYPE svg PUBLIC "-//W3C//DTD SVG 20010904//EN"
 "http://www.w3.org/TR/2001/REC-SVG-20010904/DTD/svg10.dtd">
<svg version="1.0" xmlns="http://www.w3.org/2000/svg"
 width="160.000000pt" height="160.000000pt" viewBox="0 0 160.000000 160.000000"
 preserveAspectRatio="xMidYMid meet">
<metadata>
Created by potrace 1.14, written by Peter Selinger 2001-2017
</metadata>
<g transform="translate(0.000000,160.000000) scale(0.100000,-0.100000)"
fill="#000000" stroke="none">
<path d="M821 1579 c-6 -13 -22 -55 -36 -94 -40 -105 -55 -133 -109 -192 -27
-29 -46 -56 -43 -59 3 -4 20 1 38 10 18 9 35 16 38 16 12 0 -45 -46 -104 -84
-33 -22 -62 -41 -64 -43 -3 -2 0 -8 6 -14 8 -8 20 -6 41 5 19 10 33 12 37 6 4
-6 13 -5 25 2 37 24 33 -3 -7 -41 -26 -26 -58 -44 -95 -55 -31 -9 -58 -22 -61
-30 -8 -21 13 -36 52 -36 33 0 34 -1 15 -15 -16 -13 -17 -16 -4 -24 21 -14 6
-25 -113 -81 -39 -19 -31 -45 13 -46 19 -1 43 -5 53 -9 10 -4 30 -2 44 4 14 6
28 9 31 6 3 -3 0 -5 -6 -5 -6 0 -13 -9 -17 -19 -8 -26 -55 -53 -151 -87 -44
-15 -82 -32 -86 -38 -13 -20 15 -38 54 -34 21 2 39 0 41 -5 3 -11 34 -12 80
-2 88 18 3 -36 -98 -61 -14 -3 -25 -10 -25 -14 0 -5 -8 -11 -17 -15 -10 -3
-34 -19 -53 -35 -33 -29 -34 -31 -17 -44 11 -8 26 -13 35 -10 10 3 8 0 -3 -5
-11 -6 -39 -15 -62 -21 -36 -9 -43 -15 -43 -35 0 -13 6 -26 13 -29 8 -4 7 -9
-7 -18 -38 -26 -76 -60 -76 -68 0 -5 7 -16 16 -25 19 -18 53 -14 122 16 29 12
49 16 60 10 11 -6 31 -4 56 4 46 16 66 11 59 -16 -7 -25 14 -49 41 -49 26 1
80 27 124 59 45 34 70 37 65 8 -3 -14 2 -29 11 -36 13 -11 16 -34 16 -111 l0
-98 33 -8 c39 -10 138 -13 152 -5 10 6 16 7 35 10 6 0 10 43 10 105 0 109 9
136 30 87 22 -54 85 -110 118 -105 6 1 17 2 23 3 11 1 8 24 -8 68 -5 14 -1 12
15 -6 62 -69 131 -90 166 -52 14 16 15 24 6 40 -6 12 -7 21 -3 20 33 -8 56 34
32 58 -19 19 -1 31 33 24 42 -9 83 4 102 34 20 30 5 47 -54 65 -25 7 -49 14
-55 15 -5 2 2 4 16 4 15 1 32 7 38 14 14 17 0 34 -56 70 -24 15 -43 29 -43 32
0 2 18 3 41 3 51 -1 69 14 47 39 -8 10 -13 23 -11 30 6 17 -9 22 -72 27 -31 2
-62 9 -69 16 -8 8 -7 10 4 6 38 -13 79 -13 84 -1 6 17 -5 25 -71 59 -55 27
-71 42 -28 26 28 -11 55 -4 55 15 0 16 -30 42 -54 46 -11 2 -19 7 -18 12 1 4
2 21 2 37 0 25 4 30 25 30 31 0 33 23 3 37 -105 47 -150 72 -132 73 26 0 46
22 39 41 -3 8 -24 25 -46 39 -43 26 -99 75 -99 87 0 3 10 -2 21 -13 15 -13 23
-15 26 -7 3 9 10 9 29 1 19 -9 27 -8 37 1 9 10 5 19 -23 42 -121 105 -127 111
-96 103 23 -5 27 -4 20 7 -4 8 -18 22 -31 32 -35 28 -68 91 -108 207 -19 57
-38 106 -40 108 -2 3 -9 -6 -14 -19z m-451 -1133 c0 -2 -7 -7 -16 -10 -8 -3
-12 -2 -9 4 6 10 25 14 25 6z"/>
</g>
</svg>
